<mxfile host="app.diagrams.net" agent="Mozilla/5.0 (Windows NT 10.0; Win64; x64) AppleWebKit/537.36 (KHTML, like Gecko) Chrome/139.0.0.0 Safari/537.36" version="28.0.7">
  <diagram name="Página-1" id="RPjkhTJMKGG9xSOsFwHJ">
    <mxGraphModel dx="1489" dy="803" grid="1" gridSize="10" guides="1" tooltips="1" connect="1" arrows="1" fold="1" page="1" pageScale="1" pageWidth="1169" pageHeight="827" math="0" shadow="0">
      <root>
        <mxCell id="0" />
        <mxCell id="1" parent="0" />
        <mxCell id="oEvbmlv53QNjwqsb7w5D-1" value="" style="rounded=0;whiteSpace=wrap;html=1;fillColor=light-dark(#d4fcf5, #1d293b);strokeColor=#6c8ebf;gradientColor=none;opacity=30;" vertex="1" parent="1">
          <mxGeometry x="30" y="695" width="560" height="1290" as="geometry" />
        </mxCell>
        <mxCell id="oEvbmlv53QNjwqsb7w5D-2" value="" style="rounded=0;whiteSpace=wrap;html=1;fillColor=light-dark(#FFF2CC,#1D293B);strokeColor=light-dark(#bebf6e, #5c79a3);gradientColor=none;opacity=30;" vertex="1" parent="1">
          <mxGeometry x="40" y="755" width="540" height="1190" as="geometry" />
        </mxCell>
        <mxCell id="oEvbmlv53QNjwqsb7w5D-3" value="" style="rounded=0;whiteSpace=wrap;html=1;fillColor=#dae8fc;strokeColor=#6c8ebf;gradientColor=none;opacity=30;" vertex="1" parent="1">
          <mxGeometry x="30" y="180" width="560" height="515" as="geometry" />
        </mxCell>
        <mxCell id="oEvbmlv53QNjwqsb7w5D-4" value="" style="endArrow=none;dashed=1;html=1;dashPattern=1 3;strokeWidth=2;rounded=0;entryX=0.5;entryY=1;entryDx=0;entryDy=0;" edge="1" parent="1">
          <mxGeometry width="50" height="50" relative="1" as="geometry">
            <mxPoint x="603" y="825" as="sourcePoint" />
            <mxPoint x="605" y="75" as="targetPoint" />
          </mxGeometry>
        </mxCell>
        <mxCell id="oEvbmlv53QNjwqsb7w5D-5" value="" style="rounded=0;whiteSpace=wrap;html=1;" vertex="1" parent="1">
          <mxGeometry x="30" y="70" width="560" height="105" as="geometry" />
        </mxCell>
        <mxCell id="oEvbmlv53QNjwqsb7w5D-6" value="&lt;span style=&quot;color: rgb(0, 0, 0); font-family: Helvetica; font-style: normal; font-variant-ligatures: normal; font-variant-caps: normal; letter-spacing: normal; orphans: 2; text-indent: 0px; text-transform: none; widows: 2; word-spacing: 0px; -webkit-text-stroke-width: 0px; white-space: nowrap; background-color: rgb(255, 255, 255); text-decoration-thickness: initial; text-decoration-style: initial; text-decoration-color: initial; float: none; display: inline !important;&quot;&gt;Parámetros del método&lt;/span&gt;" style="text;whiteSpace=wrap;html=1;fontSize=13;fontStyle=1;align=center;" vertex="1" parent="1">
          <mxGeometry x="30" y="105" width="160" height="30" as="geometry" />
        </mxCell>
        <mxCell id="oEvbmlv53QNjwqsb7w5D-7" value="" style="rounded=1;whiteSpace=wrap;html=1;fillColor=#D4E1F5;" vertex="1" parent="1">
          <mxGeometry x="30" y="70" width="560" height="35" as="geometry" />
        </mxCell>
        <mxCell id="oEvbmlv53QNjwqsb7w5D-8" value="&lt;span style=&quot;color: rgb(0, 0, 0); font-family: Helvetica; font-style: normal; font-variant-ligatures: normal; font-variant-caps: normal; letter-spacing: normal; orphans: 2; text-indent: 0px; text-transform: none; widows: 2; word-spacing: 0px; -webkit-text-stroke-width: 0px; white-space: nowrap; text-decoration-thickness: initial; text-decoration-style: initial; text-decoration-color: initial; float: none; display: inline !important;&quot;&gt;getCapitulos&lt;/span&gt;" style="text;whiteSpace=wrap;html=1;fontSize=16;fontStyle=1;align=center;labelBorderColor=none;labelBackgroundColor=none;" vertex="1" parent="1">
          <mxGeometry x="210" y="70" width="190" height="35" as="geometry" />
        </mxCell>
        <mxCell id="oEvbmlv53QNjwqsb7w5D-9" value="Extrae el id, rol y nombre del usuario de la petición (req)." style="rounded=0;whiteSpace=wrap;html=1;dashed=1;dashPattern=1 1;align=right;" vertex="1" parent="1">
          <mxGeometry x="30" y="135" width="560" height="20" as="geometry" />
        </mxCell>
        <mxCell id="oEvbmlv53QNjwqsb7w5D-10" value="&lt;span style=&quot;color: rgb(0, 0, 0); font-family: Helvetica; font-style: normal; font-variant-ligatures: normal; font-variant-caps: normal; letter-spacing: normal; orphans: 2; text-indent: 0px; text-transform: none; widows: 2; word-spacing: 0px; -webkit-text-stroke-width: 0px; white-space: nowrap; background-color: rgb(255, 255, 255); text-decoration-thickness: initial; text-decoration-style: initial; text-decoration-color: initial; float: none; display: inline !important;&quot;&gt;@AcademyUser -&amp;gt; &lt;/span&gt;&lt;span style=&quot;font-family: Helvetica; font-style: normal; font-variant-ligatures: normal; font-variant-caps: normal; letter-spacing: normal; orphans: 2; text-indent: 0px; text-transform: none; widows: 2; word-spacing: 0px; -webkit-text-stroke-width: 0px; white-space: nowrap; background-color: rgb(255, 255, 255); text-decoration-thickness: initial; text-decoration-style: initial; text-decoration-color: initial; float: none; display: inline !important;&quot;&gt;&lt;font style=&quot;color: rgb(255, 51, 51);&quot;&gt;&lt;b style=&quot;&quot;&gt;user&lt;/b&gt;&lt;/font&gt;&lt;/span&gt;" style="text;whiteSpace=wrap;html=1;fontSize=11;fontStyle=0;align=center;" vertex="1" parent="1">
          <mxGeometry x="30" y="135" width="140" height="20" as="geometry" />
        </mxCell>
        <mxCell id="oEvbmlv53QNjwqsb7w5D-11" value="Extrae la consulta (query) de la petición (req)." style="rounded=0;whiteSpace=wrap;html=1;dashed=1;dashPattern=1 1;align=right;" vertex="1" parent="1">
          <mxGeometry x="30" y="155" width="560" height="20" as="geometry" />
        </mxCell>
        <mxCell id="oEvbmlv53QNjwqsb7w5D-12" value="&lt;span style=&quot;color: rgb(0, 0, 0); font-family: Helvetica; font-style: normal; font-variant-ligatures: normal; font-variant-caps: normal; letter-spacing: normal; orphans: 2; text-indent: 0px; text-transform: none; widows: 2; word-spacing: 0px; -webkit-text-stroke-width: 0px; white-space: nowrap; background-color: rgb(255, 255, 255); text-decoration-thickness: initial; text-decoration-style: initial; text-decoration-color: initial; float: none; display: inline !important;&quot;&gt;@Query -&amp;gt; &lt;/span&gt;&lt;span style=&quot;font-family: Helvetica; font-style: normal; font-variant-ligatures: normal; font-variant-caps: normal; letter-spacing: normal; orphans: 2; text-indent: 0px; text-transform: none; widows: 2; word-spacing: 0px; -webkit-text-stroke-width: 0px; white-space: nowrap; background-color: rgb(255, 255, 255); text-decoration-thickness: initial; text-decoration-style: initial; text-decoration-color: initial; float: none; display: inline !important; color: rgb(0, 0, 0);&quot;&gt;&lt;font style=&quot;color: rgb(255, 51, 51);&quot;&gt;&lt;b&gt;query&lt;/b&gt;&lt;/font&gt;&lt;/span&gt;" style="text;whiteSpace=wrap;html=1;fontSize=11;fontStyle=0;align=center;" vertex="1" parent="1">
          <mxGeometry x="30" y="155" width="130" height="20" as="geometry" />
        </mxCell>
        <mxCell id="oEvbmlv53QNjwqsb7w5D-13" style="edgeStyle=orthogonalEdgeStyle;rounded=0;orthogonalLoop=1;jettySize=auto;html=1;exitX=0.5;exitY=1;exitDx=0;exitDy=0;entryX=0.5;entryY=0;entryDx=0;entryDy=0;" edge="1" parent="1" source="oEvbmlv53QNjwqsb7w5D-14" target="oEvbmlv53QNjwqsb7w5D-21">
          <mxGeometry relative="1" as="geometry" />
        </mxCell>
        <object label="&lt;b&gt;verificarUsuario&lt;/b&gt;" Función="El método verifica de este archivo es una función genérica que sirve para asegurar que el objeto recibido (por ejemplo, un DTO de una petición) tenga el usuarioId correcto, igual al del usuario autenticado." id="oEvbmlv53QNjwqsb7w5D-14">
          <mxCell style="rounded=1;whiteSpace=wrap;html=1;" vertex="1" parent="1">
            <mxGeometry x="243.75" y="185" width="122.5" height="30" as="geometry" />
          </mxCell>
        </object>
        <mxCell id="oEvbmlv53QNjwqsb7w5D-15" style="edgeStyle=orthogonalEdgeStyle;rounded=0;orthogonalLoop=1;jettySize=auto;html=1;exitX=1;exitY=0.5;exitDx=0;exitDy=0;" edge="1" parent="1" source="oEvbmlv53QNjwqsb7w5D-21" target="oEvbmlv53QNjwqsb7w5D-25">
          <mxGeometry relative="1" as="geometry" />
        </mxCell>
        <mxCell id="oEvbmlv53QNjwqsb7w5D-16" value="&lt;b style=&quot;&quot;&gt;&lt;font style=&quot;color: rgb(255, 51, 51);&quot;&gt;NO&lt;/font&gt;&lt;/b&gt;" style="edgeLabel;html=1;align=center;verticalAlign=middle;resizable=0;points=[];" vertex="1" connectable="0" parent="oEvbmlv53QNjwqsb7w5D-15">
          <mxGeometry x="0.0052" y="-2" relative="1" as="geometry">
            <mxPoint as="offset" />
          </mxGeometry>
        </mxCell>
        <mxCell id="oEvbmlv53QNjwqsb7w5D-17" value="" style="edgeStyle=orthogonalEdgeStyle;rounded=0;orthogonalLoop=1;jettySize=auto;html=1;entryX=1;entryY=0.5;entryDx=0;entryDy=0;exitX=0;exitY=0.5;exitDx=0;exitDy=0;" edge="1" parent="1" source="oEvbmlv53QNjwqsb7w5D-28" target="oEvbmlv53QNjwqsb7w5D-29">
          <mxGeometry relative="1" as="geometry">
            <mxPoint x="250" y="415" as="sourcePoint" />
          </mxGeometry>
        </mxCell>
        <mxCell id="oEvbmlv53QNjwqsb7w5D-18" value="&lt;font style=&quot;color: rgb(255, 51, 51);&quot;&gt;&lt;b&gt;NO&lt;/b&gt;&lt;/font&gt;" style="edgeLabel;html=1;align=center;verticalAlign=middle;resizable=0;points=[];" vertex="1" connectable="0" parent="oEvbmlv53QNjwqsb7w5D-17">
          <mxGeometry x="0.0041" y="-3" relative="1" as="geometry">
            <mxPoint as="offset" />
          </mxGeometry>
        </mxCell>
        <mxCell id="oEvbmlv53QNjwqsb7w5D-19" style="edgeStyle=orthogonalEdgeStyle;rounded=0;orthogonalLoop=1;jettySize=auto;html=1;exitX=0.5;exitY=1;exitDx=0;exitDy=0;entryX=0.5;entryY=0;entryDx=0;entryDy=0;" edge="1" parent="1" source="oEvbmlv53QNjwqsb7w5D-21" target="oEvbmlv53QNjwqsb7w5D-28">
          <mxGeometry relative="1" as="geometry" />
        </mxCell>
        <mxCell id="oEvbmlv53QNjwqsb7w5D-20" value="&lt;b&gt;&lt;font style=&quot;color: rgb(0, 204, 0);&quot;&gt;SI&lt;/font&gt;&lt;/b&gt;" style="edgeLabel;html=1;align=center;verticalAlign=middle;resizable=0;points=[];" vertex="1" connectable="0" parent="oEvbmlv53QNjwqsb7w5D-19">
          <mxGeometry x="-0.4068" y="-3" relative="1" as="geometry">
            <mxPoint x="3" y="2" as="offset" />
          </mxGeometry>
        </mxCell>
        <mxCell id="oEvbmlv53QNjwqsb7w5D-21" value="¿El encabezado (&lt;font style=&quot;color: rgb(255, 51, 51);&quot;&gt;&lt;b&gt;user&lt;/b&gt;&lt;/font&gt;) tiene el id?" style="rhombus;whiteSpace=wrap;html=1;fontSize=10;spacingRight=7;spacingLeft=7;" vertex="1" parent="1">
          <mxGeometry x="240" y="235" width="117.5" height="70" as="geometry" />
        </mxCell>
        <mxCell id="oEvbmlv53QNjwqsb7w5D-22" style="edgeStyle=orthogonalEdgeStyle;rounded=0;orthogonalLoop=1;jettySize=auto;html=1;entryX=0;entryY=0.5;entryDx=0;entryDy=0;" edge="1" parent="1" source="oEvbmlv53QNjwqsb7w5D-23" target="oEvbmlv53QNjwqsb7w5D-14">
          <mxGeometry relative="1" as="geometry" />
        </mxCell>
        <mxCell id="oEvbmlv53QNjwqsb7w5D-23" value="INICIO" style="rounded=1;whiteSpace=wrap;html=1;" vertex="1" parent="1">
          <mxGeometry x="140" y="195" width="65" height="30" as="geometry" />
        </mxCell>
        <mxCell id="oEvbmlv53QNjwqsb7w5D-24" style="edgeStyle=orthogonalEdgeStyle;rounded=0;orthogonalLoop=1;jettySize=auto;html=1;exitX=0.5;exitY=0;exitDx=0;exitDy=0;entryX=0.5;entryY=1;entryDx=0;entryDy=0;" edge="1" parent="1" source="oEvbmlv53QNjwqsb7w5D-25" target="oEvbmlv53QNjwqsb7w5D-26">
          <mxGeometry relative="1" as="geometry" />
        </mxCell>
        <mxCell id="oEvbmlv53QNjwqsb7w5D-25" value="&lt;b&gt;&lt;font style=&quot;color: rgb(102, 0, 204);&quot;&gt;throw&lt;/font&gt;&lt;/b&gt;&lt;div&gt;El ID del usuario en el header es obligatorio&lt;/div&gt;" style="rounded=1;whiteSpace=wrap;html=1;fontSize=10;" vertex="1" parent="1">
          <mxGeometry x="450" y="290" width="110" height="50" as="geometry" />
        </mxCell>
        <mxCell id="oEvbmlv53QNjwqsb7w5D-26" value="&lt;font style=&quot;color: rgb(0, 0, 0);&quot;&gt;&lt;font&gt;&lt;b style=&quot;&quot;&gt;Crea logger&lt;/b&gt;&lt;/font&gt;&lt;br&gt;&lt;/font&gt;&lt;div&gt;El ID del usuario en el header es obligatorio&lt;/div&gt;" style="rounded=1;whiteSpace=wrap;html=1;fontSize=10;" vertex="1" parent="1">
          <mxGeometry x="450" y="215" width="110" height="50" as="geometry" />
        </mxCell>
        <mxCell id="oEvbmlv53QNjwqsb7w5D-27" value="&lt;font style=&quot;color: rgb(0, 204, 0);&quot;&gt;&lt;b&gt;SI&lt;/b&gt;&lt;/font&gt;" style="edgeStyle=orthogonalEdgeStyle;rounded=0;orthogonalLoop=1;jettySize=auto;html=1;exitX=0.5;exitY=1;exitDx=0;exitDy=0;" edge="1" parent="1" source="oEvbmlv53QNjwqsb7w5D-28" target="oEvbmlv53QNjwqsb7w5D-32">
          <mxGeometry relative="1" as="geometry" />
        </mxCell>
        <mxCell id="oEvbmlv53QNjwqsb7w5D-28" value="¿El usuario (&lt;font style=&quot;color: rgb(255, 51, 51);&quot;&gt;&lt;b&gt;query&lt;/b&gt;&lt;/font&gt;) tiene el atributo&amp;nbsp;&lt;i&gt;usuarioId&lt;/i&gt;?" style="rhombus;whiteSpace=wrap;html=1;fontSize=10;spacingRight=11;spacingLeft=12;" vertex="1" parent="1">
          <mxGeometry x="233.44" y="355" width="130.62" height="81" as="geometry" />
        </mxCell>
        <mxCell id="oEvbmlv53QNjwqsb7w5D-29" value="&lt;b&gt;&lt;font style=&quot;color: rgb(102, 0, 204);&quot;&gt;throw&lt;/font&gt;&lt;/b&gt;&lt;div&gt;No se recibe el usuarioId en el DTO. Se requiere el id del usuario&lt;/div&gt;" style="rounded=1;whiteSpace=wrap;html=1;fontSize=10;" vertex="1" parent="1">
          <mxGeometry x="60" y="325" width="120" height="60" as="geometry" />
        </mxCell>
        <mxCell id="oEvbmlv53QNjwqsb7w5D-30" style="edgeStyle=orthogonalEdgeStyle;rounded=0;orthogonalLoop=1;jettySize=auto;html=1;exitX=1;exitY=0.5;exitDx=0;exitDy=0;" edge="1" parent="1" source="oEvbmlv53QNjwqsb7w5D-32" target="oEvbmlv53QNjwqsb7w5D-34">
          <mxGeometry relative="1" as="geometry" />
        </mxCell>
        <mxCell id="oEvbmlv53QNjwqsb7w5D-31" value="&lt;font style=&quot;color: rgb(0, 204, 0);&quot;&gt;&lt;b&gt;SI&lt;/b&gt;&lt;/font&gt;" style="edgeStyle=orthogonalEdgeStyle;rounded=0;orthogonalLoop=1;jettySize=auto;html=1;exitX=0.5;exitY=1;exitDx=0;exitDy=0;" edge="1" parent="1" source="oEvbmlv53QNjwqsb7w5D-32" target="oEvbmlv53QNjwqsb7w5D-38">
          <mxGeometry x="-0.2012" y="1" relative="1" as="geometry">
            <Array as="points">
              <mxPoint x="299" y="605" />
              <mxPoint x="299" y="605" />
            </Array>
            <mxPoint as="offset" />
          </mxGeometry>
        </mxCell>
        <mxCell id="oEvbmlv53QNjwqsb7w5D-32" value="¿El atributo usuarioId de usuario (&lt;font style=&quot;color: rgb(255, 51, 51);&quot;&gt;&lt;b&gt;query&lt;/b&gt;&lt;/font&gt;) es el mismo que el id del encabezado (&lt;font style=&quot;color: rgb(255, 51, 51);&quot;&gt;&lt;b&gt;user&lt;/b&gt;&lt;/font&gt;)?" style="rhombus;whiteSpace=wrap;html=1;fontSize=10;spacingRight=12;spacingLeft=12;" vertex="1" parent="1">
          <mxGeometry x="200.94" y="475" width="199.06" height="110" as="geometry" />
        </mxCell>
        <mxCell id="oEvbmlv53QNjwqsb7w5D-33" style="edgeStyle=orthogonalEdgeStyle;rounded=0;orthogonalLoop=1;jettySize=auto;html=1;exitX=0.5;exitY=0;exitDx=0;exitDy=0;entryX=0.5;entryY=1;entryDx=0;entryDy=0;" edge="1" parent="1" source="oEvbmlv53QNjwqsb7w5D-34" target="oEvbmlv53QNjwqsb7w5D-35">
          <mxGeometry relative="1" as="geometry" />
        </mxCell>
        <mxCell id="oEvbmlv53QNjwqsb7w5D-34" value="&lt;b&gt;&lt;font style=&quot;color: rgb(102, 0, 204);&quot;&gt;throw&lt;/font&gt;&lt;/b&gt;&lt;div&gt;El ID del usuario no coincide con el ID del header&lt;/div&gt;" style="rounded=1;whiteSpace=wrap;html=1;fontSize=10;" vertex="1" parent="1">
          <mxGeometry x="460" y="485" width="120" height="60" as="geometry" />
        </mxCell>
        <mxCell id="oEvbmlv53QNjwqsb7w5D-35" value="&lt;font style=&quot;color: rgb(0, 0, 0);&quot;&gt;&lt;font&gt;&lt;b style=&quot;&quot;&gt;Crea logger&lt;/b&gt;&lt;/font&gt;&lt;br&gt;&lt;/font&gt;&lt;div&gt;El ID del usuario no coincide con el ID del header&lt;/div&gt;" style="rounded=1;whiteSpace=wrap;html=1;fontSize=10;" vertex="1" parent="1">
          <mxGeometry x="450" y="395" width="110" height="60" as="geometry" />
        </mxCell>
        <mxCell id="oEvbmlv53QNjwqsb7w5D-36" style="edgeStyle=orthogonalEdgeStyle;rounded=0;orthogonalLoop=1;jettySize=auto;html=1;" edge="1" parent="1" source="oEvbmlv53QNjwqsb7w5D-38" target="oEvbmlv53QNjwqsb7w5D-40">
          <mxGeometry relative="1" as="geometry" />
        </mxCell>
        <mxCell id="oEvbmlv53QNjwqsb7w5D-37" value="&lt;font style=&quot;color: rgb(51, 51, 255);&quot;&gt;return &lt;/font&gt;&lt;span&gt;&lt;font style=&quot;color: rgb(255, 51, 51);&quot;&gt;&lt;b&gt;queryVerificado&lt;/b&gt;&lt;/font&gt;&lt;/span&gt;" style="edgeLabel;html=1;align=center;verticalAlign=middle;resizable=0;points=[];" vertex="1" connectable="0" parent="oEvbmlv53QNjwqsb7w5D-36">
          <mxGeometry x="0.1493" y="-1" relative="1" as="geometry">
            <mxPoint x="1" y="-3" as="offset" />
          </mxGeometry>
        </mxCell>
        <mxCell id="oEvbmlv53QNjwqsb7w5D-38" value="&lt;font style=&quot;font-size: 10px;&quot;&gt;Se le da el valor del id del encabezado (&lt;font style=&quot;color: rgb(255, 51, 51);&quot;&gt;&lt;b&gt;user&lt;/b&gt;&lt;/font&gt;) al atributo usuarioId del usuario (&lt;font style=&quot;&quot;&gt;&lt;b style=&quot;color: light-dark(rgb(255, 51, 51), rgb(255, 119, 119));&quot;&gt;query&lt;/b&gt;&lt;font style=&quot;color: rgb(0, 0, 0);&quot;&gt;).&lt;/font&gt;&lt;/font&gt;&lt;/font&gt;&lt;div&gt;&lt;font&gt;&lt;font style=&quot;color: rgb(0, 0, 0); font-size: 10px;&quot;&gt;&lt;div style=&quot;color: rgb(204, 204, 204); background-color: rgb(31, 31, 31); font-family: Consolas, &amp;quot;Courier New&amp;quot;, monospace; line-height: 19px; white-space: pre;&quot;&gt;&lt;span style=&quot;color: rgb(156, 220, 254);&quot;&gt;usuario&lt;/span&gt;.&lt;span style=&quot;color: rgb(156, 220, 254);&quot;&gt;usuarioId&lt;/span&gt; &lt;span style=&quot;color: rgb(212, 212, 212);&quot;&gt;=&lt;/span&gt; &lt;span style=&quot;color: rgb(156, 220, 254);&quot;&gt;header&lt;/span&gt;.&lt;span style=&quot;color: rgb(156, 220, 254);&quot;&gt;id&lt;/span&gt;;&lt;/div&gt;&lt;/font&gt;&lt;/font&gt;&lt;/div&gt;" style="rounded=1;whiteSpace=wrap;html=1;" vertex="1" parent="1">
          <mxGeometry x="100.15999999999997" y="625" width="397.18" height="50" as="geometry" />
        </mxCell>
        <mxCell id="oEvbmlv53QNjwqsb7w5D-39" style="edgeStyle=orthogonalEdgeStyle;rounded=0;orthogonalLoop=1;jettySize=auto;html=1;exitX=0.5;exitY=1;exitDx=0;exitDy=0;entryX=0.5;entryY=0;entryDx=0;entryDy=0;" edge="1" parent="1" source="oEvbmlv53QNjwqsb7w5D-40" target="oEvbmlv53QNjwqsb7w5D-43">
          <mxGeometry relative="1" as="geometry" />
        </mxCell>
        <object label="&lt;font color=&quot;#3333ff&quot;&gt;&lt;span style=&quot;font-size: 10px;&quot;&gt;async&amp;nbsp;&lt;/span&gt;&lt;/font&gt;&lt;b&gt;getCapitulos(&lt;font style=&quot;font-size: 10px; color: rgb(255, 51, 51);&quot;&gt;queryVerificado&lt;/font&gt;)&lt;/b&gt;" Función="El método verifica de este archivo es una función genérica que sirve para asegurar que el objeto recibido (por ejemplo, un DTO de una petición) tenga el usuarioId correcto, igual al del usuario autenticado." id="oEvbmlv53QNjwqsb7w5D-40">
          <mxCell style="rounded=1;whiteSpace=wrap;html=1;arcSize=50;" vertex="1" parent="1">
            <mxGeometry x="157.5" y="715" width="282.5" height="30" as="geometry" />
          </mxCell>
        </object>
        <mxCell id="oEvbmlv53QNjwqsb7w5D-41" value="" style="rounded=0;whiteSpace=wrap;html=1;fillColor=light-dark(#fbcbec, #1D293B);strokeColor=light-dark(#bebf6e, #5c79a3);gradientColor=none;opacity=30;" vertex="1" parent="1">
          <mxGeometry x="52.5" y="825" width="515" height="720" as="geometry" />
        </mxCell>
        <mxCell id="oEvbmlv53QNjwqsb7w5D-42" style="edgeStyle=orthogonalEdgeStyle;rounded=0;orthogonalLoop=1;jettySize=auto;html=1;" edge="1" parent="1" source="oEvbmlv53QNjwqsb7w5D-43" target="oEvbmlv53QNjwqsb7w5D-45">
          <mxGeometry relative="1" as="geometry" />
        </mxCell>
        <mxCell id="oEvbmlv53QNjwqsb7w5D-43" value="&lt;div&gt;findCapitulosCompradosPorModulo(&lt;b style=&quot;background-color: transparent; color: light-dark(rgb(0, 0, 0), rgb(255, 255, 255));&quot;&gt;&lt;font style=&quot;color: rgb(255, 51, 51); font-size: 9px;&quot;&gt;queryVerificado&lt;/font&gt;&lt;font style=&quot;font-size: 10px; color: rgb(255, 51, 51);&quot;&gt;.&lt;/font&gt;&lt;/b&gt;&lt;span style=&quot;background-color: transparent; color: light-dark(rgb(0, 0, 0), rgb(255, 255, 255));&quot;&gt;usuarioId,&amp;nbsp;&lt;/span&gt;&lt;b style=&quot;background-color: transparent; color: light-dark(rgb(0, 0, 0), rgb(255, 255, 255));&quot;&gt;&lt;font style=&quot;color: rgb(255, 51, 51); font-size: 9px;&quot;&gt;queryVerificado&lt;/font&gt;&lt;font style=&quot;font-size: 10px; color: rgb(255, 51, 51);&quot;&gt;.&lt;/font&gt;&lt;/b&gt;&lt;span style=&quot;background-color: transparent; color: light-dark(rgb(0, 0, 0), rgb(255, 255, 255));&quot;&gt;cursoId,&amp;nbsp;&lt;/span&gt;&lt;b style=&quot;background-color: transparent; color: light-dark(rgb(0, 0, 0), rgb(255, 255, 255));&quot;&gt;&lt;font style=&quot;color: rgb(255, 51, 51); font-size: 9px;&quot;&gt;queryVerificado&lt;/font&gt;&lt;font style=&quot;color: rgb(255, 51, 51);&quot;&gt;.&lt;/font&gt;&lt;/b&gt;&lt;span style=&quot;background-color: transparent; color: light-dark(rgb(0, 0, 0), rgb(255, 255, 255));&quot;&gt;moduloId&lt;/span&gt;&lt;span style=&quot;background-color: transparent; color: light-dark(rgb(0, 0, 0), rgb(255, 255, 255));&quot;&gt;)&lt;/span&gt;&lt;/div&gt;" style="rounded=1;whiteSpace=wrap;html=1;fontSize=10;" vertex="1" parent="1">
          <mxGeometry x="48.910000000000025" y="775" width="512.19" height="30" as="geometry" />
        </mxCell>
        <mxCell id="oEvbmlv53QNjwqsb7w5D-44" style="edgeStyle=orthogonalEdgeStyle;rounded=0;orthogonalLoop=1;jettySize=auto;html=1;exitX=0.5;exitY=1;exitDx=0;exitDy=0;entryX=0.488;entryY=0.043;entryDx=0;entryDy=0;entryPerimeter=0;" edge="1" parent="1" target="oEvbmlv53QNjwqsb7w5D-48">
          <mxGeometry relative="1" as="geometry">
            <mxPoint x="296.515" y="842" as="sourcePoint" />
            <mxPoint x="300.9337499999999" y="866.1700000000001" as="targetPoint" />
          </mxGeometry>
        </mxCell>
        <mxCell id="oEvbmlv53QNjwqsb7w5D-45" value="&lt;div&gt;findAllModulosByCursoId(&lt;b style=&quot;background-color: transparent; color: light-dark(rgb(0, 0, 0), rgb(255, 255, 255));&quot;&gt;&lt;font style=&quot;color: rgb(255, 51, 51); font-size: 9px;&quot;&gt;queryVerificado&lt;/font&gt;&lt;font style=&quot;font-size: 10px; color: rgb(255, 51, 51);&quot;&gt;.&lt;/font&gt;&lt;/b&gt;&lt;span style=&quot;background-color: transparent; color: light-dark(rgb(0, 0, 0), rgb(255, 255, 255));&quot;&gt;cursoId,&amp;nbsp;&lt;/span&gt;&lt;b style=&quot;background-color: transparent; color: light-dark(rgb(0, 0, 0), rgb(255, 255, 255));&quot;&gt;&lt;font style=&quot;color: rgb(255, 51, 51); font-size: 9px;&quot;&gt;queryVerificado&lt;/font&gt;&lt;font style=&quot;color: rgb(255, 51, 51);&quot;&gt;.&lt;/font&gt;&lt;/b&gt;&lt;span style=&quot;background-color: transparent; color: light-dark(rgb(0, 0, 0), rgb(255, 255, 255));&quot;&gt;usuarioId&lt;/span&gt;&lt;span style=&quot;background-color: transparent; color: light-dark(rgb(0, 0, 0), rgb(255, 255, 255));&quot;&gt;)&lt;/span&gt;&lt;/div&gt;" style="rounded=1;whiteSpace=wrap;html=1;fontSize=10;" vertex="1" parent="1">
          <mxGeometry x="121.88" y="842" width="366.25" height="30" as="geometry" />
        </mxCell>
        <mxCell id="oEvbmlv53QNjwqsb7w5D-46" value="" style="rounded=0;whiteSpace=wrap;html=1;fillColor=light-dark(#c7c3fe, #1a1a1a);strokeColor=#666666;opacity=30;fontColor=#333333;" vertex="1" parent="1">
          <mxGeometry x="62.5" y="885" width="495" height="360" as="geometry" />
        </mxCell>
        <mxCell id="oEvbmlv53QNjwqsb7w5D-47" style="edgeStyle=orthogonalEdgeStyle;rounded=0;orthogonalLoop=1;jettySize=auto;html=1;entryX=0.5;entryY=0;entryDx=0;entryDy=0;" edge="1" parent="1" source="oEvbmlv53QNjwqsb7w5D-48" target="oEvbmlv53QNjwqsb7w5D-53">
          <mxGeometry relative="1" as="geometry" />
        </mxCell>
        <mxCell id="oEvbmlv53QNjwqsb7w5D-48" value="&lt;div&gt;FindMiCursoByIdUsuarioId(&lt;b style=&quot;background-color: transparent; color: light-dark(rgb(0, 0, 0), rgb(255, 255, 255));&quot;&gt;&lt;font style=&quot;color: rgb(255, 51, 51); font-size: 9px;&quot;&gt;queryVerificado&lt;/font&gt;&lt;font style=&quot;font-size: 10px; color: rgb(255, 51, 51);&quot;&gt;.&lt;/font&gt;&lt;/b&gt;&lt;span style=&quot;background-color: transparent; color: light-dark(rgb(0, 0, 0), rgb(255, 255, 255));&quot;&gt;usuarioId,&amp;nbsp;&lt;/span&gt;&lt;b style=&quot;background-color: transparent; color: light-dark(rgb(0, 0, 0), rgb(255, 255, 255));&quot;&gt;&lt;font style=&quot;color: rgb(255, 51, 51); font-size: 9px;&quot;&gt;queryVerificado&lt;/font&gt;&lt;font style=&quot;font-size: 10px; color: rgb(255, 51, 51);&quot;&gt;.&lt;/font&gt;&lt;/b&gt;&lt;span style=&quot;background-color: transparent; color: light-dark(rgb(0, 0, 0), rgb(255, 255, 255));&quot;&gt;cursoId)&lt;/span&gt;&lt;/div&gt;" style="rounded=1;whiteSpace=wrap;html=1;fontSize=10;" vertex="1" parent="1">
          <mxGeometry x="117.38" y="905" width="366.25" height="30" as="geometry" />
        </mxCell>
        <mxCell id="oEvbmlv53QNjwqsb7w5D-49" style="edgeStyle=orthogonalEdgeStyle;rounded=0;orthogonalLoop=1;jettySize=auto;html=1;entryX=0.5;entryY=0;entryDx=0;entryDy=0;" edge="1" parent="1" source="oEvbmlv53QNjwqsb7w5D-52" target="oEvbmlv53QNjwqsb7w5D-59">
          <mxGeometry relative="1" as="geometry">
            <mxPoint x="294.69000000000005" y="1065" as="targetPoint" />
          </mxGeometry>
        </mxCell>
        <mxCell id="oEvbmlv53QNjwqsb7w5D-50" value="&lt;font style=&quot;font-size: 10px;&quot;&gt;&lt;font style=&quot;color: rgb(51, 51, 255);&quot;&gt;await &lt;/font&gt;&lt;font style=&quot;color: rgb(255, 51, 51);&quot;&gt;&lt;b&gt;miCurso&lt;/b&gt;&lt;/font&gt;&lt;/font&gt;" style="edgeLabel;html=1;align=center;verticalAlign=middle;resizable=0;points=[];" vertex="1" connectable="0" parent="oEvbmlv53QNjwqsb7w5D-49">
          <mxGeometry x="-0.5801" y="-3" relative="1" as="geometry">
            <mxPoint x="3" y="4" as="offset" />
          </mxGeometry>
        </mxCell>
        <mxCell id="oEvbmlv53QNjwqsb7w5D-51" style="edgeStyle=orthogonalEdgeStyle;rounded=0;orthogonalLoop=1;jettySize=auto;html=1;entryX=1;entryY=0.5;entryDx=0;entryDy=0;" edge="1" parent="1" source="oEvbmlv53QNjwqsb7w5D-52" target="oEvbmlv53QNjwqsb7w5D-71">
          <mxGeometry relative="1" as="geometry" />
        </mxCell>
        <mxCell id="oEvbmlv53QNjwqsb7w5D-52" value="&lt;font style=&quot;font-size: 9px;&quot;&gt;&lt;i style=&quot;&quot;&gt;findOne &lt;/i&gt;-&amp;gt;&lt;b style=&quot;&quot;&gt;Curso&lt;/b&gt;&lt;/font&gt;" style="shape=parallelogram;perimeter=parallelogramPerimeter;whiteSpace=wrap;html=1;fixedSize=1;" vertex="1" parent="1">
          <mxGeometry x="230.94" y="1055" width="132.5" height="20" as="geometry" />
        </mxCell>
        <mxCell id="oEvbmlv53QNjwqsb7w5D-53" value="&lt;font style=&quot;font-size: 8px;&quot;&gt;&lt;i&gt;donde&lt;/i&gt;&lt;/font&gt;&lt;div style=&quot;line-height: 80%;&quot;&gt;&lt;font style=&quot;font-size: 8px;&quot;&gt;&lt;i&gt;&amp;nbsp;&lt;/i&gt;&lt;b&gt;Usuario&lt;/b&gt;.id==&lt;/font&gt;&lt;font style=&quot;font-size: 8px;&quot;&gt;&lt;b style=&quot;color: light-dark(rgb(0, 0, 0), rgb(255, 255, 255)); background-color: transparent;&quot;&gt;&lt;font style=&quot;color: rgb(255, 51, 51);&quot;&gt;queryVerificado&lt;/font&gt;&lt;font style=&quot;color: rgb(255, 51, 51);&quot;&gt;.&lt;/font&gt;&lt;/b&gt;&lt;span style=&quot;color: light-dark(rgb(0, 0, 0), rgb(255, 255, 255)); background-color: transparent;&quot;&gt;usuarioId&amp;nbsp;&lt;/span&gt;&lt;/font&gt;&lt;div&gt;&lt;font style=&quot;font-size: 8px; line-height: 80%;&quot;&gt;&lt;span style=&quot;color: light-dark(rgb(0, 0, 0), rgb(255, 255, 255)); background-color: transparent;&quot;&gt;&lt;i&gt;and&lt;/i&gt;&lt;/span&gt;&lt;/font&gt;&lt;/div&gt;&lt;div&gt;&lt;font style=&quot;font-size: 8px; line-height: 80%;&quot;&gt;&lt;span style=&quot;color: light-dark(rgb(0, 0, 0), rgb(255, 255, 255)); background-color: transparent;&quot;&gt;&lt;i&gt;&lt;/i&gt;&lt;b&gt;Curso&lt;/b&gt;.id==&lt;/span&gt;&lt;/font&gt;&lt;font style=&quot;font-size: 8px;&quot;&gt;&lt;b style=&quot;background-color: transparent; color: light-dark(rgb(0, 0, 0), rgb(255, 255, 255));&quot;&gt;&lt;font style=&quot;color: rgb(255, 51, 51);&quot;&gt;queryVerificado&lt;/font&gt;&lt;font style=&quot;color: rgb(255, 51, 51);&quot;&gt;.&lt;/font&gt;&lt;/b&gt;&lt;span style=&quot;background-color: transparent; color: light-dark(rgb(0, 0, 0), rgb(255, 255, 255));&quot;&gt;cursoId&lt;/span&gt;&lt;/font&gt;&lt;/div&gt;&lt;div&gt;&lt;font style=&quot;font-size: 8px;&quot;&gt;&lt;span style=&quot;background-color: transparent; color: light-dark(rgb(0, 0, 0), rgb(255, 255, 255));&quot;&gt;inner&lt;/span&gt;&lt;/font&gt;&lt;/div&gt;&lt;div&gt;&lt;font style=&quot;font-size: 8px;&quot;&gt;&lt;span style=&quot;background-color: transparent; color: light-dark(rgb(0, 0, 0), rgb(255, 255, 255));&quot;&gt;&lt;b&gt;Curso, Usuario&lt;/b&gt;&lt;/span&gt;&lt;/font&gt;&lt;/div&gt;&lt;/div&gt;" style="shape=hexagon;perimeter=hexagonPerimeter2;whiteSpace=wrap;html=1;fixedSize=1;spacingTop=0;spacing=0;verticalAlign=top;" vertex="1" parent="1">
          <mxGeometry x="207.51" y="955" width="186" height="80" as="geometry" />
        </mxCell>
        <mxCell id="oEvbmlv53QNjwqsb7w5D-54" style="edgeStyle=orthogonalEdgeStyle;rounded=0;orthogonalLoop=1;jettySize=auto;html=1;entryX=0.52;entryY=0.001;entryDx=0;entryDy=0;entryPerimeter=0;" edge="1" parent="1" source="oEvbmlv53QNjwqsb7w5D-53" target="oEvbmlv53QNjwqsb7w5D-52">
          <mxGeometry relative="1" as="geometry" />
        </mxCell>
        <mxCell id="oEvbmlv53QNjwqsb7w5D-55" style="edgeStyle=orthogonalEdgeStyle;rounded=0;orthogonalLoop=1;jettySize=auto;html=1;entryX=1;entryY=0.5;entryDx=0;entryDy=0;exitX=0.5;exitY=1;exitDx=0;exitDy=0;" edge="1" parent="1" source="oEvbmlv53QNjwqsb7w5D-59" target="oEvbmlv53QNjwqsb7w5D-65">
          <mxGeometry relative="1" as="geometry" />
        </mxCell>
        <mxCell id="oEvbmlv53QNjwqsb7w5D-56" value="&lt;font style=&quot;color: rgb(0, 204, 0);&quot;&gt;&lt;b&gt;SI&lt;/b&gt;&lt;/font&gt;" style="edgeLabel;html=1;align=center;verticalAlign=middle;resizable=0;points=[];" vertex="1" connectable="0" parent="oEvbmlv53QNjwqsb7w5D-55">
          <mxGeometry x="0.1211" relative="1" as="geometry">
            <mxPoint as="offset" />
          </mxGeometry>
        </mxCell>
        <mxCell id="oEvbmlv53QNjwqsb7w5D-57" style="edgeStyle=orthogonalEdgeStyle;rounded=0;orthogonalLoop=1;jettySize=auto;html=1;entryX=0.5;entryY=0;entryDx=0;entryDy=0;" edge="1" parent="1" source="oEvbmlv53QNjwqsb7w5D-59" target="oEvbmlv53QNjwqsb7w5D-70">
          <mxGeometry relative="1" as="geometry">
            <mxPoint x="297.51428571428573" y="1275" as="targetPoint" />
          </mxGeometry>
        </mxCell>
        <mxCell id="oEvbmlv53QNjwqsb7w5D-58" value="&lt;font style=&quot;color: rgb(51, 51, 255);&quot;&gt;return &lt;/font&gt;&lt;b&gt;&lt;font style=&quot;color: rgb(255, 51, 51);&quot;&gt;miCurso&lt;/font&gt;&lt;/b&gt;" style="edgeLabel;html=1;align=center;verticalAlign=middle;resizable=0;points=[];" vertex="1" connectable="0" parent="oEvbmlv53QNjwqsb7w5D-57">
          <mxGeometry x="0.4481" relative="1" as="geometry">
            <mxPoint as="offset" />
          </mxGeometry>
        </mxCell>
        <mxCell id="oEvbmlv53QNjwqsb7w5D-59" value="&lt;font style=&quot;font-size: 10px;&quot;&gt;¿&lt;b style=&quot;&quot;&gt;&lt;font style=&quot;color: rgb(255, 51, 51);&quot;&gt;miCurso &lt;/font&gt;&lt;/b&gt;existe?&lt;/font&gt;" style="rhombus;whiteSpace=wrap;html=1;" vertex="1" parent="1">
          <mxGeometry x="259.53999999999996" y="1115" width="75.31" height="60" as="geometry" />
        </mxCell>
        <mxCell id="oEvbmlv53QNjwqsb7w5D-60" value="&lt;font style=&quot;font-size: 10px;&quot;&gt;&lt;b&gt;Crear loggerError&lt;/b&gt;&lt;/font&gt;&lt;div&gt;&lt;font style=&quot;font-size: 10px;&quot;&gt;No se encontró MiCurso para el ID de usuario&amp;nbsp;&lt;/font&gt;&lt;b style=&quot;background-color: transparent; color: light-dark(rgb(0, 0, 0), rgb(255, 255, 255)); font-size: 8px;&quot;&gt;&lt;font style=&quot;color: rgb(255, 51, 51);&quot;&gt;queryVerificado&lt;/font&gt;&lt;font style=&quot;color: rgb(255, 51, 51);&quot;&gt;.&lt;/font&gt;&lt;/b&gt;&lt;span style=&quot;background-color: transparent; color: light-dark(rgb(0, 0, 0), rgb(255, 255, 255)); font-size: 8px;&quot;&gt;usuarioId&lt;/span&gt;&lt;span style=&quot;font-size: 10px; background-color: transparent; color: light-dark(rgb(0, 0, 0), rgb(255, 255, 255));&quot;&gt;&amp;nbsp;y curso&amp;nbsp;&lt;/span&gt;&lt;font style=&quot;background-color: transparent; color: light-dark(rgb(0, 0, 0), rgb(255, 255, 255)); font-size: 8px; line-height: 6.4px;&quot;&gt;=&lt;/font&gt;&lt;font style=&quot;background-color: transparent; color: light-dark(rgb(0, 0, 0), rgb(255, 255, 255)); font-size: 8px;&quot;&gt;&lt;b style=&quot;background-color: transparent; color: light-dark(rgb(0, 0, 0), rgb(255, 255, 255));&quot;&gt;&lt;font style=&quot;color: rgb(255, 51, 51);&quot;&gt;queryVerificado&lt;/font&gt;&lt;font style=&quot;color: rgb(255, 51, 51);&quot;&gt;.&lt;/font&gt;&lt;/b&gt;&lt;span style=&quot;background-color: transparent; color: light-dark(rgb(0, 0, 0), rgb(255, 255, 255));&quot;&gt;cursoId&lt;/span&gt;&lt;/font&gt;&lt;/div&gt;" style="rounded=1;whiteSpace=wrap;html=1;" vertex="1" parent="1">
          <mxGeometry x="366.55999999999995" y="1165" width="179.06" height="70" as="geometry" />
        </mxCell>
        <mxCell id="oEvbmlv53QNjwqsb7w5D-61" style="edgeStyle=orthogonalEdgeStyle;rounded=0;orthogonalLoop=1;jettySize=auto;html=1;" edge="1" parent="1" source="oEvbmlv53QNjwqsb7w5D-62" target="oEvbmlv53QNjwqsb7w5D-60">
          <mxGeometry relative="1" as="geometry" />
        </mxCell>
        <mxCell id="oEvbmlv53QNjwqsb7w5D-62" value="&lt;div&gt;&lt;font style=&quot;font-size: 10px; color: rgb(102, 0, 204);&quot;&gt;&lt;b&gt;throw&lt;/b&gt;&lt;/font&gt;&lt;/div&gt;&lt;div&gt;&lt;font style=&quot;font-size: 10px;&quot;&gt;No se encontró MiCurso para el ID de usuario&amp;nbsp;&lt;/font&gt;&lt;b style=&quot;background-color: transparent; color: light-dark(rgb(0, 0, 0), rgb(255, 255, 255)); font-size: 8px;&quot;&gt;&lt;font style=&quot;color: rgb(255, 51, 51);&quot;&gt;queryVerificado&lt;/font&gt;&lt;font style=&quot;color: rgb(255, 51, 51);&quot;&gt;.&lt;/font&gt;&lt;/b&gt;&lt;span style=&quot;background-color: transparent; color: light-dark(rgb(0, 0, 0), rgb(255, 255, 255)); font-size: 8px;&quot;&gt;usuarioId&lt;/span&gt;&lt;span style=&quot;font-size: 10px; background-color: transparent; color: light-dark(rgb(0, 0, 0), rgb(255, 255, 255));&quot;&gt;&amp;nbsp;y curso&amp;nbsp;&lt;/span&gt;&lt;font style=&quot;background-color: transparent; color: light-dark(rgb(0, 0, 0), rgb(255, 255, 255)); font-size: 8px; line-height: 6.4px;&quot;&gt;=&lt;/font&gt;&lt;font style=&quot;background-color: transparent; color: light-dark(rgb(0, 0, 0), rgb(255, 255, 255)); font-size: 8px;&quot;&gt;&lt;b style=&quot;background-color: transparent; color: light-dark(rgb(0, 0, 0), rgb(255, 255, 255));&quot;&gt;&lt;font style=&quot;color: rgb(255, 51, 51);&quot;&gt;queryVerificado&lt;/font&gt;&lt;font style=&quot;color: rgb(255, 51, 51);&quot;&gt;.&lt;/font&gt;&lt;/b&gt;&lt;span style=&quot;background-color: transparent; color: light-dark(rgb(0, 0, 0), rgb(255, 255, 255));&quot;&gt;cursoId&lt;/span&gt;&lt;/font&gt;&lt;/div&gt;" style="rounded=1;whiteSpace=wrap;html=1;" vertex="1" parent="1">
          <mxGeometry x="366.55999999999995" y="1075" width="179.06" height="70" as="geometry" />
        </mxCell>
        <mxCell id="oEvbmlv53QNjwqsb7w5D-63" style="edgeStyle=orthogonalEdgeStyle;rounded=0;orthogonalLoop=1;jettySize=auto;html=1;entryX=0.017;entryY=0.431;entryDx=0;entryDy=0;entryPerimeter=0;" edge="1" parent="1" source="oEvbmlv53QNjwqsb7w5D-59" target="oEvbmlv53QNjwqsb7w5D-62">
          <mxGeometry relative="1" as="geometry" />
        </mxCell>
        <mxCell id="oEvbmlv53QNjwqsb7w5D-64" value="&lt;b&gt;&lt;font style=&quot;color: rgb(255, 51, 51);&quot;&gt;NO&lt;/font&gt;&lt;/b&gt;" style="edgeLabel;html=1;align=center;verticalAlign=middle;resizable=0;points=[];" vertex="1" connectable="0" parent="oEvbmlv53QNjwqsb7w5D-63">
          <mxGeometry x="-0.3477" y="-2" relative="1" as="geometry">
            <mxPoint x="-4" y="-17" as="offset" />
          </mxGeometry>
        </mxCell>
        <mxCell id="oEvbmlv53QNjwqsb7w5D-65" value="&lt;font style=&quot;font-size: 10px;&quot;&gt;&lt;b&gt;Crear loggerInfo&lt;/b&gt;&lt;/font&gt;&lt;div&gt;&lt;font style=&quot;font-size: 10px;&quot;&gt;&amp;nbsp;MiCurso encontrado para el ID de usuario&amp;nbsp;&lt;/font&gt;&lt;b style=&quot;background-color: transparent; color: light-dark(rgb(0, 0, 0), rgb(255, 255, 255)); font-size: 8px;&quot;&gt;&lt;font style=&quot;color: rgb(255, 51, 51);&quot;&gt;queryVerificado&lt;/font&gt;&lt;font style=&quot;color: rgb(255, 51, 51);&quot;&gt;.&lt;/font&gt;&lt;/b&gt;&lt;span style=&quot;background-color: transparent; color: light-dark(rgb(0, 0, 0), rgb(255, 255, 255)); font-size: 8px;&quot;&gt;usuarioId&lt;/span&gt;&lt;span style=&quot;font-size: 10px; background-color: transparent; color: light-dark(rgb(0, 0, 0), rgb(255, 255, 255));&quot;&gt;&amp;nbsp;y curso&amp;nbsp;&lt;/span&gt;&lt;font style=&quot;background-color: transparent; color: light-dark(rgb(0, 0, 0), rgb(255, 255, 255)); font-size: 8px; line-height: 6.4px;&quot;&gt;=&lt;/font&gt;&lt;font style=&quot;background-color: transparent; color: light-dark(rgb(0, 0, 0), rgb(255, 255, 255)); font-size: 8px;&quot;&gt;&lt;b style=&quot;background-color: transparent; color: light-dark(rgb(0, 0, 0), rgb(255, 255, 255));&quot;&gt;&lt;font style=&quot;color: rgb(255, 51, 51);&quot;&gt;queryVerificado&lt;/font&gt;&lt;font style=&quot;color: rgb(255, 51, 51);&quot;&gt;.&lt;/font&gt;&lt;/b&gt;&lt;span style=&quot;background-color: transparent; color: light-dark(rgb(0, 0, 0), rgb(255, 255, 255));&quot;&gt;cursoId&lt;/span&gt;&lt;/font&gt;&lt;/div&gt;" style="rounded=1;whiteSpace=wrap;html=1;" vertex="1" parent="1">
          <mxGeometry x="70" y="1165" width="179.06" height="70" as="geometry" />
        </mxCell>
        <mxCell id="oEvbmlv53QNjwqsb7w5D-66" style="edgeStyle=orthogonalEdgeStyle;rounded=0;orthogonalLoop=1;jettySize=auto;html=1;entryX=1;entryY=0.5;entryDx=0;entryDy=0;" edge="1" parent="1" source="oEvbmlv53QNjwqsb7w5D-69" target="oEvbmlv53QNjwqsb7w5D-72">
          <mxGeometry relative="1" as="geometry" />
        </mxCell>
        <mxCell id="oEvbmlv53QNjwqsb7w5D-67" style="edgeStyle=orthogonalEdgeStyle;rounded=0;orthogonalLoop=1;jettySize=auto;html=1;entryX=0.5;entryY=0;entryDx=0;entryDy=0;" edge="1" parent="1" source="oEvbmlv53QNjwqsb7w5D-69" target="oEvbmlv53QNjwqsb7w5D-76">
          <mxGeometry relative="1" as="geometry" />
        </mxCell>
        <mxCell id="oEvbmlv53QNjwqsb7w5D-68" value="&lt;font style=&quot;color: rgb(51, 51, 255);&quot;&gt;await&amp;nbsp; &lt;/font&gt;&lt;font style=&quot;color: rgb(255, 51, 51);&quot;&gt;&lt;b&gt;modulos[]&lt;/b&gt;&lt;/font&gt;" style="edgeLabel;html=1;align=center;verticalAlign=middle;resizable=0;points=[];" vertex="1" connectable="0" parent="oEvbmlv53QNjwqsb7w5D-67">
          <mxGeometry x="-0.2357" relative="1" as="geometry">
            <mxPoint y="3" as="offset" />
          </mxGeometry>
        </mxCell>
        <mxCell id="oEvbmlv53QNjwqsb7w5D-69" value="&lt;font style=&quot;font-size: 9px;&quot;&gt;&lt;i style=&quot;&quot;&gt;find&amp;nbsp;&lt;/i&gt;-&amp;gt;&lt;b style=&quot;&quot;&gt;Modulo&lt;/b&gt;&lt;/font&gt;" style="shape=parallelogram;perimeter=parallelogramPerimeter;whiteSpace=wrap;html=1;fixedSize=1;" vertex="1" parent="1">
          <mxGeometry x="230.94" y="1355" width="132.5" height="20" as="geometry" />
        </mxCell>
        <mxCell id="oEvbmlv53QNjwqsb7w5D-70" value="&lt;font style=&quot;font-size: 8px;&quot;&gt;&lt;i&gt;donde&lt;/i&gt;&lt;/font&gt;&lt;div style=&quot;line-height: 80%;&quot;&gt;&lt;font style=&quot;font-size: 8px;&quot;&gt;&lt;i&gt;&amp;nbsp;&lt;/i&gt;&lt;b&gt;Curso&lt;/b&gt;.id==&lt;/font&gt;&lt;font style=&quot;font-size: 8px;&quot;&gt;&lt;b style=&quot;color: light-dark(rgb(0, 0, 0), rgb(255, 255, 255)); background-color: transparent;&quot;&gt;&lt;font style=&quot;color: rgb(255, 51, 51);&quot;&gt;miCurso&lt;/font&gt;&lt;font style=&quot;color: rgb(255, 51, 51);&quot;&gt;.&lt;/font&gt;&lt;/b&gt;&lt;span style=&quot;color: light-dark(rgb(0, 0, 0), rgb(255, 255, 255)); background-color: transparent;&quot;&gt;cursoId&lt;/span&gt;&lt;/font&gt;&lt;/div&gt;&lt;div style=&quot;line-height: 80%;&quot;&gt;&lt;span style=&quot;font-size: 8px;&quot;&gt;Curso.estado==true&lt;br&gt;&lt;/span&gt;&lt;div&gt;&lt;i style=&quot;background-color: transparent; color: light-dark(rgb(0, 0, 0), rgb(255, 255, 255)); font-size: 8px;&quot;&gt;inner&lt;/i&gt;&lt;/div&gt;&lt;div&gt;&lt;font style=&quot;font-size: 8px;&quot;&gt;&lt;span style=&quot;background-color: transparent; color: light-dark(rgb(0, 0, 0), rgb(255, 255, 255));&quot;&gt;&lt;b&gt;Capitulo&lt;/b&gt;&lt;/span&gt;&lt;/font&gt;&lt;/div&gt;&lt;div&gt;&lt;font style=&quot;font-size: 8px;&quot;&gt;&lt;span style=&quot;background-color: transparent; color: light-dark(rgb(0, 0, 0), rgb(255, 255, 255));&quot;&gt;&lt;b&gt;&lt;br&gt;&lt;/b&gt;&lt;/span&gt;&lt;/font&gt;&lt;/div&gt;&lt;/div&gt;" style="shape=hexagon;perimeter=hexagonPerimeter2;whiteSpace=wrap;html=1;fixedSize=1;spacingTop=0;spacing=0;verticalAlign=top;" vertex="1" parent="1">
          <mxGeometry x="204.19" y="1265" width="186" height="70" as="geometry" />
        </mxCell>
        <mxCell id="oEvbmlv53QNjwqsb7w5D-71" value="" style="image;aspect=fixed;perimeter=ellipsePerimeter;align=center;shadow=0;dashed=0;spacingTop=-6;image=img/lib/active_directory/databases.svg;html=1;textShadow=0;" vertex="1" parent="1">
          <mxGeometry x="130" y="1024.8" width="40" height="39.2" as="geometry" />
        </mxCell>
        <mxCell id="oEvbmlv53QNjwqsb7w5D-72" value="" style="image;aspect=fixed;perimeter=ellipsePerimeter;align=center;shadow=0;dashed=0;spacingTop=-6;image=img/lib/active_directory/databases.svg;html=1;textShadow=0;" vertex="1" parent="1">
          <mxGeometry x="117.38000000000005" y="1350.5" width="29.59" height="29" as="geometry" />
        </mxCell>
        <mxCell id="oEvbmlv53QNjwqsb7w5D-73" style="edgeStyle=orthogonalEdgeStyle;rounded=0;orthogonalLoop=1;jettySize=auto;html=1;entryX=0.5;entryY=0;entryDx=0;entryDy=0;" edge="1" parent="1" source="oEvbmlv53QNjwqsb7w5D-70" target="oEvbmlv53QNjwqsb7w5D-69">
          <mxGeometry relative="1" as="geometry">
            <mxPoint x="300" y="1355" as="targetPoint" />
          </mxGeometry>
        </mxCell>
        <mxCell id="oEvbmlv53QNjwqsb7w5D-74" style="edgeStyle=orthogonalEdgeStyle;rounded=0;orthogonalLoop=1;jettySize=auto;html=1;entryX=0.5;entryY=0;entryDx=0;entryDy=0;" edge="1" parent="1" source="oEvbmlv53QNjwqsb7w5D-76" target="oEvbmlv53QNjwqsb7w5D-88">
          <mxGeometry relative="1" as="geometry">
            <mxPoint x="290.94000000000005" y="1585" as="targetPoint" />
          </mxGeometry>
        </mxCell>
        <mxCell id="oEvbmlv53QNjwqsb7w5D-75" value="&lt;font style=&quot;color: rgb(51, 51, 255);&quot;&gt;return&amp;nbsp;&lt;/font&gt;&lt;b&gt;&lt;font style=&quot;color: rgb(255, 51, 51);&quot;&gt;modulos&lt;/font&gt;&lt;/b&gt;&lt;b style=&quot;color: rgb(255, 51, 51);&quot;&gt;[]&lt;/b&gt;" style="edgeLabel;html=1;align=center;verticalAlign=middle;resizable=0;points=[];" vertex="1" connectable="0" parent="oEvbmlv53QNjwqsb7w5D-74">
          <mxGeometry x="0.3832" y="1" relative="1" as="geometry">
            <mxPoint as="offset" />
          </mxGeometry>
        </mxCell>
        <mxCell id="oEvbmlv53QNjwqsb7w5D-76" value="&lt;font style=&quot;font-size: 10px;&quot;&gt;¿&lt;font style=&quot;color: rgb(255, 51, 51);&quot;&gt;&lt;b&gt;modulos &lt;/b&gt;&lt;/font&gt;es nulo o su tamaño es 0?&lt;/font&gt;" style="rhombus;whiteSpace=wrap;html=1;spacingRight=9;spacingLeft=9;" vertex="1" parent="1">
          <mxGeometry x="240" y="1415" width="102.81" height="70" as="geometry" />
        </mxCell>
        <mxCell id="oEvbmlv53QNjwqsb7w5D-77" value="&lt;font style=&quot;font-size: 10px;&quot;&gt;&lt;b&gt;Crear loggerError&lt;/b&gt;&lt;/font&gt;&lt;div&gt;&lt;span style=&quot;font-size: 10px;&quot;&gt;No se encontraron modulos para el curso con ID&amp;nbsp;&lt;/span&gt;&lt;b style=&quot;background-color: transparent; color: light-dark(rgb(0, 0, 0), rgb(255, 255, 255)); font-size: 8px;&quot;&gt;&lt;font style=&quot;color: rgb(255, 51, 51);&quot;&gt;queryVerificado&lt;/font&gt;&lt;font style=&quot;color: rgb(255, 51, 51);&quot;&gt;.&lt;/font&gt;&lt;/b&gt;&lt;span style=&quot;background-color: transparent; color: light-dark(rgb(0, 0, 0), rgb(255, 255, 255)); font-size: 8px;&quot;&gt;cursoId&lt;/span&gt;&lt;/div&gt;" style="rounded=1;whiteSpace=wrap;html=1;" vertex="1" parent="1">
          <mxGeometry x="380.94000000000005" y="1335" width="179.06" height="70" as="geometry" />
        </mxCell>
        <mxCell id="oEvbmlv53QNjwqsb7w5D-78" style="edgeStyle=orthogonalEdgeStyle;rounded=0;orthogonalLoop=1;jettySize=auto;html=1;entryX=0;entryY=0.5;entryDx=0;entryDy=0;" edge="1" parent="1" source="oEvbmlv53QNjwqsb7w5D-76" target="oEvbmlv53QNjwqsb7w5D-81">
          <mxGeometry relative="1" as="geometry" />
        </mxCell>
        <mxCell id="oEvbmlv53QNjwqsb7w5D-79" value="&lt;b&gt;&lt;font style=&quot;color: rgb(0, 204, 0);&quot;&gt;SI&lt;/font&gt;&lt;/b&gt;" style="edgeLabel;html=1;align=center;verticalAlign=middle;resizable=0;points=[];" vertex="1" connectable="0" parent="oEvbmlv53QNjwqsb7w5D-78">
          <mxGeometry x="-0.27" y="3" relative="1" as="geometry">
            <mxPoint as="offset" />
          </mxGeometry>
        </mxCell>
        <mxCell id="oEvbmlv53QNjwqsb7w5D-80" style="edgeStyle=orthogonalEdgeStyle;rounded=0;orthogonalLoop=1;jettySize=auto;html=1;entryX=0.5;entryY=1;entryDx=0;entryDy=0;" edge="1" parent="1" source="oEvbmlv53QNjwqsb7w5D-81" target="oEvbmlv53QNjwqsb7w5D-77">
          <mxGeometry relative="1" as="geometry" />
        </mxCell>
        <mxCell id="oEvbmlv53QNjwqsb7w5D-81" value="&lt;div&gt;&lt;font style=&quot;font-size: 10px; color: rgb(102, 0, 204);&quot;&gt;&lt;b&gt;throw&lt;/b&gt;&lt;/font&gt;&lt;/div&gt;&lt;div&gt;&lt;font style=&quot;font-size: 10px;&quot;&gt;No se encontró MiCurso para el ID de usuario&amp;nbsp;&lt;/font&gt;&lt;b style=&quot;background-color: transparent; color: light-dark(rgb(0, 0, 0), rgb(255, 255, 255)); font-size: 8px;&quot;&gt;&lt;font style=&quot;color: rgb(255, 51, 51);&quot;&gt;queryVerificado&lt;/font&gt;&lt;font style=&quot;color: rgb(255, 51, 51);&quot;&gt;.&lt;/font&gt;&lt;/b&gt;&lt;span style=&quot;background-color: transparent; color: light-dark(rgb(0, 0, 0), rgb(255, 255, 255)); font-size: 8px;&quot;&gt;usuarioId&lt;/span&gt;&lt;span style=&quot;font-size: 10px; background-color: transparent; color: light-dark(rgb(0, 0, 0), rgb(255, 255, 255));&quot;&gt;&amp;nbsp;y curso&amp;nbsp;&lt;/span&gt;&lt;font style=&quot;background-color: transparent; color: light-dark(rgb(0, 0, 0), rgb(255, 255, 255)); font-size: 8px; line-height: 6.4px;&quot;&gt;=&lt;/font&gt;&lt;font style=&quot;background-color: transparent; color: light-dark(rgb(0, 0, 0), rgb(255, 255, 255)); font-size: 8px;&quot;&gt;&lt;b style=&quot;background-color: transparent; color: light-dark(rgb(0, 0, 0), rgb(255, 255, 255));&quot;&gt;&lt;font style=&quot;color: rgb(255, 51, 51);&quot;&gt;queryVerificado&lt;/font&gt;&lt;font style=&quot;color: rgb(255, 51, 51);&quot;&gt;.&lt;/font&gt;&lt;/b&gt;&lt;span style=&quot;background-color: transparent; color: light-dark(rgb(0, 0, 0), rgb(255, 255, 255));&quot;&gt;cursoId&lt;/span&gt;&lt;/font&gt;&lt;/div&gt;" style="rounded=1;whiteSpace=wrap;html=1;" vertex="1" parent="1">
          <mxGeometry x="380.94000000000005" y="1435" width="179.06" height="70" as="geometry" />
        </mxCell>
        <mxCell id="oEvbmlv53QNjwqsb7w5D-82" value="&lt;font style=&quot;font-size: 10px;&quot;&gt;&lt;b&gt;Crear loggerInfo&lt;/b&gt;&lt;/font&gt;&lt;div&gt;&lt;font style=&quot;font-size: 10px;&quot;&gt;&amp;nbsp;Modulos encontrados para el curso con ID&amp;nbsp;&lt;/font&gt;&lt;b style=&quot;background-color: transparent; color: light-dark(rgb(0, 0, 0), rgb(255, 255, 255)); font-size: 8px;&quot;&gt;&lt;font style=&quot;color: rgb(255, 51, 51);&quot;&gt;queryVerificado&lt;/font&gt;&lt;font style=&quot;color: rgb(255, 51, 51);&quot;&gt;.&lt;/font&gt;&lt;/b&gt;&lt;span style=&quot;background-color: transparent; color: light-dark(rgb(0, 0, 0), rgb(255, 255, 255)); font-size: 8px;&quot;&gt;cursoId&lt;/span&gt;&lt;/div&gt;" style="rounded=1;whiteSpace=wrap;html=1;" vertex="1" parent="1">
          <mxGeometry x="64.69" y="1465" width="179.06" height="70" as="geometry" />
        </mxCell>
        <mxCell id="oEvbmlv53QNjwqsb7w5D-83" style="edgeStyle=orthogonalEdgeStyle;rounded=0;orthogonalLoop=1;jettySize=auto;html=1;entryX=1.002;entryY=0.592;entryDx=0;entryDy=0;entryPerimeter=0;" edge="1" parent="1" source="oEvbmlv53QNjwqsb7w5D-76" target="oEvbmlv53QNjwqsb7w5D-82">
          <mxGeometry relative="1" as="geometry">
            <mxPoint x="270" y="1505" as="targetPoint" />
          </mxGeometry>
        </mxCell>
        <mxCell id="oEvbmlv53QNjwqsb7w5D-84" value="&lt;b&gt;&lt;font style=&quot;color: rgb(255, 51, 51);&quot;&gt;NO&lt;/font&gt;&lt;/b&gt;" style="edgeLabel;html=1;align=center;verticalAlign=middle;resizable=0;points=[];" vertex="1" connectable="0" parent="oEvbmlv53QNjwqsb7w5D-83">
          <mxGeometry x="-0.3558" y="1" relative="1" as="geometry">
            <mxPoint as="offset" />
          </mxGeometry>
        </mxCell>
        <mxCell id="oEvbmlv53QNjwqsb7w5D-85" style="edgeStyle=orthogonalEdgeStyle;rounded=0;orthogonalLoop=1;jettySize=auto;html=1;entryX=0;entryY=0.5;entryDx=0;entryDy=0;" edge="1" parent="1" source="oEvbmlv53QNjwqsb7w5D-88" target="oEvbmlv53QNjwqsb7w5D-89">
          <mxGeometry relative="1" as="geometry" />
        </mxCell>
        <mxCell id="oEvbmlv53QNjwqsb7w5D-86" value="&lt;b&gt;&lt;font style=&quot;color: rgb(255, 51, 51);&quot;&gt;NO&lt;/font&gt;&lt;/b&gt;" style="edgeLabel;html=1;align=center;verticalAlign=middle;resizable=0;points=[];" vertex="1" connectable="0" parent="oEvbmlv53QNjwqsb7w5D-85">
          <mxGeometry x="-0.1525" relative="1" as="geometry">
            <mxPoint as="offset" />
          </mxGeometry>
        </mxCell>
        <mxCell id="oEvbmlv53QNjwqsb7w5D-87" style="edgeStyle=orthogonalEdgeStyle;rounded=0;orthogonalLoop=1;jettySize=auto;html=1;entryX=0.5;entryY=0;entryDx=0;entryDy=0;" edge="1" parent="1" source="oEvbmlv53QNjwqsb7w5D-88" target="oEvbmlv53QNjwqsb7w5D-94">
          <mxGeometry relative="1" as="geometry" />
        </mxCell>
        <mxCell id="oEvbmlv53QNjwqsb7w5D-88" value="&lt;font style=&quot;font-size: 10px;&quot;&gt;¿El&amp;nbsp;&lt;b style=&quot;color: light-dark(rgb(0, 0, 0), rgb(255, 255, 255)); background-color: transparent;&quot;&gt;&lt;font style=&quot;color: rgb(255, 51, 51);&quot;&gt;queryVerificado&lt;/font&gt;&lt;font style=&quot;color: rgb(255, 51, 51);&quot;&gt;.&lt;/font&gt;&lt;/b&gt;&lt;span style=&quot;background-color: transparent;&quot;&gt;&lt;font style=&quot;color: light-dark(rgb(0, 0, 0), rgb(255, 255, 255));&quot;&gt;moduloId está dentro de&lt;/font&gt;&lt;font style=&quot;color: light-dark(rgb(255, 51, 51), rgb(255, 255, 255));&quot;&gt; &lt;/font&gt;&lt;b style=&quot;&quot;&gt;&lt;font style=&quot;color: light-dark(rgb(255, 51, 51), rgb(255, 255, 255));&quot;&gt;modulos[]&lt;/font&gt;&lt;/b&gt;&lt;font style=&quot;color: light-dark(rgb(255, 51, 51), rgb(255, 255, 255));&quot;&gt;.&lt;/font&gt;&lt;font style=&quot;color: light-dark(rgb(0, 0, 0), rgb(255, 255, 255));&quot;&gt;id&lt;/font&gt;&lt;font style=&quot;color: light-dark(rgb(255, 51, 51), rgb(255, 255, 255));&quot;&gt;?&lt;/font&gt;&lt;/span&gt;&lt;/font&gt;" style="rhombus;whiteSpace=wrap;html=1;spacingRight=10;spacingLeft=7;" vertex="1" parent="1">
          <mxGeometry x="190.31" y="1585" width="167.19" height="96" as="geometry" />
        </mxCell>
        <mxCell id="oEvbmlv53QNjwqsb7w5D-89" value="&lt;div&gt;&lt;font style=&quot;font-size: 10px;&quot;&gt;&lt;b style=&quot;&quot;&gt;&lt;font style=&quot;color: rgb(102, 0, 204);&quot;&gt;throw &lt;/font&gt;&lt;font style=&quot;color: rgb(255, 102, 179);&quot;&gt;403&lt;/font&gt;&lt;/b&gt;&lt;/font&gt;&lt;/div&gt;&lt;div&gt;&lt;span style=&quot;font-size: 10px; background-color: transparent; color: light-dark(rgb(0, 0, 0), rgb(255, 255, 255));&quot;&gt;El usuario no tiene acceso a este módulo o el módulo no pertenece al curso&lt;/span&gt;&lt;/div&gt;" style="rounded=1;whiteSpace=wrap;html=1;" vertex="1" parent="1">
          <mxGeometry x="393.51" y="1555" width="179.06" height="70" as="geometry" />
        </mxCell>
        <mxCell id="oEvbmlv53QNjwqsb7w5D-90" style="edgeStyle=orthogonalEdgeStyle;rounded=0;orthogonalLoop=1;jettySize=auto;html=1;entryX=1;entryY=0.5;entryDx=0;entryDy=0;" edge="1" parent="1" source="oEvbmlv53QNjwqsb7w5D-93" target="oEvbmlv53QNjwqsb7w5D-95">
          <mxGeometry relative="1" as="geometry" />
        </mxCell>
        <mxCell id="oEvbmlv53QNjwqsb7w5D-91" style="edgeStyle=orthogonalEdgeStyle;rounded=0;orthogonalLoop=1;jettySize=auto;html=1;entryX=0.5;entryY=0;entryDx=0;entryDy=0;" edge="1" parent="1" source="oEvbmlv53QNjwqsb7w5D-93" target="oEvbmlv53QNjwqsb7w5D-100">
          <mxGeometry relative="1" as="geometry" />
        </mxCell>
        <mxCell id="oEvbmlv53QNjwqsb7w5D-92" value="&lt;font style=&quot;color: rgb(102, 0, 204);&quot;&gt;await &lt;/font&gt;&lt;font&gt;&lt;b style=&quot;color: light-dark(rgb(255, 51, 51), rgb(255, 119, 119));&quot;&gt;capitulos &lt;/b&gt;&lt;font style=&quot;color: rgb(0, 0, 0);&quot;&gt;&lt;i&gt;relación &lt;/i&gt;&lt;/font&gt;&lt;b style=&quot;color: light-dark(rgb(255, 51, 51), rgb(255, 119, 119));&quot;&gt;secciones&lt;/b&gt;&lt;/font&gt;" style="edgeLabel;html=1;align=center;verticalAlign=middle;resizable=0;points=[];" vertex="1" connectable="0" parent="oEvbmlv53QNjwqsb7w5D-91">
          <mxGeometry x="-0.1591" y="1" relative="1" as="geometry">
            <mxPoint as="offset" />
          </mxGeometry>
        </mxCell>
        <mxCell id="oEvbmlv53QNjwqsb7w5D-93" value="&lt;font style=&quot;font-size: 9px;&quot;&gt;&lt;i style=&quot;&quot;&gt;find&amp;nbsp;&lt;/i&gt;-&amp;gt;&lt;b style=&quot;&quot;&gt;Capitulo&lt;/b&gt;&lt;/font&gt;" style="shape=parallelogram;perimeter=parallelogramPerimeter;whiteSpace=wrap;html=1;fixedSize=1;" vertex="1" parent="1">
          <mxGeometry x="206.99999999999994" y="1795" width="132.5" height="20" as="geometry" />
        </mxCell>
        <object label="&lt;font style=&quot;font-size: 9px;&quot;&gt;&lt;i style=&quot;&quot;&gt;donde&lt;/i&gt;&lt;/font&gt;&lt;div style=&quot;line-height: 80%;&quot;&gt;&lt;font style=&quot;font-size: 9px;&quot;&gt;&lt;font style=&quot;&quot;&gt;&lt;i&gt;&amp;nbsp;&lt;/i&gt;&lt;b&gt;Modulo&lt;/b&gt;.id==&lt;/font&gt;&lt;b style=&quot;background-color: transparent; color: light-dark(rgb(0, 0, 0), rgb(255, 255, 255));&quot;&gt;&lt;font style=&quot;color: rgb(255, 51, 51);&quot;&gt;queryVerificado&lt;/font&gt;&lt;font style=&quot;color: rgb(255, 51, 51);&quot;&gt;.&lt;/font&gt;&lt;/b&gt;&lt;span style=&quot;background-color: transparent; color: light-dark(rgb(0, 0, 0), rgb(255, 255, 255));&quot;&gt;moduloId&lt;/span&gt;&lt;/font&gt;&lt;/div&gt;&lt;div style=&quot;line-height: 80%;&quot;&gt;&lt;font style=&quot;font-size: 9px;&quot;&gt;&lt;b&gt;Modulo&lt;/b&gt;.estado==true&lt;br&gt;&lt;/font&gt;&lt;div&gt;&lt;i style=&quot;background-color: transparent; color: light-dark(rgb(0, 0, 0), rgb(255, 255, 255));&quot;&gt;&lt;font style=&quot;font-size: 9px;&quot;&gt;inner&lt;/font&gt;&lt;/i&gt;&lt;/div&gt;&lt;div&gt;&lt;font style=&quot;font-size: 9px;&quot;&gt;&lt;span style=&quot;background-color: transparent; color: light-dark(rgb(0, 0, 0), rgb(255, 255, 255));&quot;&gt;&lt;b&gt;Secciones&lt;/b&gt;&lt;/span&gt;&lt;/font&gt;&lt;/div&gt;&lt;div&gt;&lt;font style=&quot;font-size: 8px;&quot;&gt;&lt;span style=&quot;background-color: transparent; color: light-dark(rgb(0, 0, 0), rgb(255, 255, 255));&quot;&gt;&lt;b&gt;&lt;br&gt;&lt;/b&gt;&lt;/span&gt;&lt;/font&gt;&lt;/div&gt;&lt;/div&gt;" Descripción="Buscar capítulos donde modulo.id = moduloId y estado = true, incluir secciones" id="oEvbmlv53QNjwqsb7w5D-94">
          <mxCell style="shape=hexagon;perimeter=hexagonPerimeter2;whiteSpace=wrap;html=1;fixedSize=1;spacingTop=0;spacing=0;verticalAlign=top;" vertex="1" parent="1">
            <mxGeometry x="180.89999999999998" y="1705" width="186" height="70" as="geometry" />
          </mxCell>
        </object>
        <mxCell id="oEvbmlv53QNjwqsb7w5D-95" value="" style="image;aspect=fixed;perimeter=ellipsePerimeter;align=center;shadow=0;dashed=0;spacingTop=-6;image=img/lib/active_directory/databases.svg;html=1;textShadow=0;" vertex="1" parent="1">
          <mxGeometry x="93.44" y="1790.5" width="29.59" height="29" as="geometry" />
        </mxCell>
        <mxCell id="oEvbmlv53QNjwqsb7w5D-96" style="edgeStyle=orthogonalEdgeStyle;rounded=0;orthogonalLoop=1;jettySize=auto;html=1;entryX=0.5;entryY=0;entryDx=0;entryDy=0;" edge="1" parent="1" source="oEvbmlv53QNjwqsb7w5D-94" target="oEvbmlv53QNjwqsb7w5D-93">
          <mxGeometry relative="1" as="geometry">
            <mxPoint x="276.05999999999995" y="1795" as="targetPoint" />
          </mxGeometry>
        </mxCell>
        <mxCell id="oEvbmlv53QNjwqsb7w5D-97" style="edgeStyle=orthogonalEdgeStyle;rounded=0;orthogonalLoop=1;jettySize=auto;html=1;entryX=0.5;entryY=0;entryDx=0;entryDy=0;" edge="1" parent="1" source="oEvbmlv53QNjwqsb7w5D-100" target="oEvbmlv53QNjwqsb7w5D-101">
          <mxGeometry relative="1" as="geometry" />
        </mxCell>
        <mxCell id="oEvbmlv53QNjwqsb7w5D-98" value="&lt;font style=&quot;color: rgb(102, 0, 204);&quot;&gt;return &lt;/font&gt;&lt;b&gt;&lt;font style=&quot;color: rgb(255, 51, 51);&quot;&gt;capitulos&lt;/font&gt;&lt;/b&gt;" style="edgeLabel;html=1;align=center;verticalAlign=middle;resizable=0;points=[];" vertex="1" connectable="0" parent="oEvbmlv53QNjwqsb7w5D-97">
          <mxGeometry x="-0.3945" y="1" relative="1" as="geometry">
            <mxPoint as="offset" />
          </mxGeometry>
        </mxCell>
        <mxCell id="oEvbmlv53QNjwqsb7w5D-99" value="&lt;font style=&quot;color: rgb(102, 0, 204);&quot;&gt;return &lt;/font&gt;&lt;b&gt;&lt;font style=&quot;color: rgb(255, 51, 51);&quot;&gt;response&lt;/font&gt;&lt;/b&gt;" style="edgeLabel;html=1;align=center;verticalAlign=middle;resizable=0;points=[];" vertex="1" connectable="0" parent="oEvbmlv53QNjwqsb7w5D-97">
          <mxGeometry x="0.4782" relative="1" as="geometry">
            <mxPoint as="offset" />
          </mxGeometry>
        </mxCell>
        <object label="&lt;font style=&quot;font-size: 10px;&quot;&gt;Formatear &lt;b&gt;&lt;font style=&quot;color: rgb(255, 51, 51);&quot;&gt;capítulos &lt;/font&gt;&lt;/b&gt;y &lt;font style=&quot;color: rgb(255, 51, 51);&quot;&gt;&lt;b&gt;secciones &lt;/b&gt;&lt;/font&gt;para la respuesta&lt;/font&gt;" Descripción="&#xa;  - Mapear cada capítulo para extraer id, nombre, descripción&#xa;  - Mapear secciones de cada capítulo (id, tipo, nombre)&#xa;  - Construir arreglo capitulosConSecciones&#xa;Devuelve lista de capitulos con lista de secciones en cada capítulo" id="oEvbmlv53QNjwqsb7w5D-100">
          <mxCell style="rounded=1;whiteSpace=wrap;html=1;" vertex="1" parent="1">
            <mxGeometry x="213.25" y="1855" width="120" height="60" as="geometry" />
          </mxCell>
        </object>
        <mxCell id="oEvbmlv53QNjwqsb7w5D-101" value="FIN" style="rounded=1;whiteSpace=wrap;html=1;" vertex="1" parent="1">
          <mxGeometry x="243" y="2015" width="60.5" height="30" as="geometry" />
        </mxCell>
        <mxCell id="oEvbmlv53QNjwqsb7w5D-102" value="&lt;span style=&quot;color: rgb(0, 0, 0); font-family: Helvetica; font-style: normal; font-variant-ligatures: normal; font-variant-caps: normal; letter-spacing: normal; orphans: 2; text-indent: 0px; text-transform: none; widows: 2; word-spacing: 0px; -webkit-text-stroke-width: 0px; white-space: nowrap; background-color: rgb(255, 255, 255); text-decoration-thickness: initial; text-decoration-style: initial; text-decoration-color: initial; float: none; display: inline !important;&quot;&gt;CAPITULO-USUARIO&lt;/span&gt;" style="text;whiteSpace=wrap;html=1;fontSize=17;fontStyle=1;align=center;" vertex="1" parent="1">
          <mxGeometry x="470" y="10" width="190" height="40" as="geometry" />
        </mxCell>
      </root>
    </mxGraphModel>
  </diagram>
</mxfile>
